# AST/ASF file generated using VICON BodyLanguage
# -----------------------------------------------
:version 1.10
:name VICON
:units
  mass 1.0
  length 0.45
  angle deg
:documentation
   .ast/.asf automatically generated from VICON data using
   VICON BodyBuilder and BodyLanguage model FoxedUp or BRILLIANT.MOD
:root
   order TX TY TZ RX RY RZ
   axis XYZ
   position 0 0 0  
   orientation 0 0 0 
:bonedata
  begin
     id 1 
     name lhipjoint
     direction 0.543289 -0.788407 0.288535 
     length 2.57127 
     axis 0 0 0  XYZ
  end
  begin
     id 2 
     name lfemur
     direction 0.34202 -0.939693 0  
     length 8.47298  
     axis 0 0 20  XYZ
    dof rx ry rz
    limits (-160.0 20.0)
           (-70.0 70.0)
           (-60.0 70.0)
  end
  begin
     id 3 
     name ltibia
     direction 0.34202 -0.939693 0   
     length 8.13367   
     axis 0 0 20   XYZ
    dof rx
    limits (-10.0 170.0)
  end
  begin
     id 4 
     name lfoot
     direction 0.114037 -0.313314 0.942778   
     length 2.67113   
     axis -90 7.62852e-016 20   XYZ
    dof rx rz
    limits (-45.0 90.0)
           (-70.0 20.0)
  end
  begin
     id 5 
     name ltoes
     direction 1.536e-011 -4.21847e-011 1   
     length 1.32217   
     axis -90 7.62852e-016 20   XYZ
    dof rx
    limits (-90.0 20.0)
  end
  begin
     id 6 
     name rhipjoint
     direction -0.571293 -0.770752 0.282074   
     length 2.63017  
     axis 0 0 0  XYZ 
  end
  begin
     id 7 
     name rfemur
     direction -0.34202 -0.939693 0   
     length 8.60885   
     axis 0 0 -20   XYZ
    dof rx ry rz
    limits (-160.0 20.0)
           (-70.0 70.0)
           (-70.0 60.0)
  end
  begin
     id 8 
     name rtibia
     direction -0.34202 -0.939693 0   
     length 8.07673   
     axis 0 0 -20   XYZ
    dof rx
    limits (-10.0 170.0)
 end
 begin
     id 9 
     name rfoot
     direction -0.121336 -0.333368 0.934956   
     length 2.81602  
     axis -90 -7.62852e-016 -20   XYZ
    dof rx rz
    limits (-45.0 90.0)
           (-20.0 70.0)
  end
  begin
     id 10 
     name rtoes
     direction -1.53491e-011 -4.21808e-011 1   
     length 1.38905   
     axis -90 -7.62852e-016 -20   XYZ
    dof rx
    limits (-90.0 20.0)
  end
  begin
     id 11 
     name lowerback
     direction 0.0136776 0.999869 -0.00861835   
     length 2.14087   
     axis 0 0 0   XYZ
    dof rx ry rz
    limits (-20.0 45.0)
           (-30.0 30.0)
           (-30.0 30.0)
  end
  begin
     id 12 
     name upperback
     direction -0.00789158 0.999804 0.0181308   
     length 2.14151   
     axis 0 0 0   XYZ
    dof rx ry rz
    limits (-20.0 45.0)
           (-30.0 30.0)
           (-30.0 30.0)
  end
  begin
     id 13 
     name thorax
     direction -0.0135231 0.999666 0.0220247   
     length 2.13644   
     axis 0 0 0   XYZ
    dof rx ry rz
    limits (-20.0 45.0)
           (-30.0 30.0)
           (-30.0 30.0)
  end
  begin
     id 14 
     name lowerneck
     direction -0.0392259 0.997317 0.0618018   
     length 1.65045   
     axis 0 0 0   XYZ
    dof rx ry rz
    limits (-20.0 45.0)
           (-30.0 30.0)
           (-30.0 30.0)
  end
  begin
     id 15 
     name upperneck
     direction 0.0765547 0.994276 -0.0745319   
     length 1.66045   
     axis 0 0 0   XYZ
    dof rx ry rz
    limits (-20.0 45.0)
           (-30.0 30.0)
           (-30.0 30.0)
  end
  begin
     id 16
     name head
     direction 0.0241564 0.999031 -0.036785  
     length 1.66594  
     axis 0 0 0   XYZ
    dof rx ry rz
    limits (-20.0 45.0)
           (-30.0 30.0)
           (-30.0 30.0)
  end
  begin
     id 17 
     name lclavicle
     direction 0.967398 0.249018 0.0461573  
     length 3.75176  
     axis 0 0 0   XYZ
    dof ry rz
    limits (-20.0 10.0)
           (0.0 20.0)
  end
  begin
     id 18 
     name lhumerus
     direction 1 -4.48963e-011 -3.05005e-027   
     length 5.93342   
     axis 180 -30 -90   XYZ
    dof rx ry rz
    limits (-60.0 90.0)
           (-90.0 90.0)
           (-90.0 90.0)
  end
  begin
     id 19
     name lradius
     direction 1 -4.48957e-011 1.07006e-026   
     length 3.94763   
     axis 180 -30 -90   XYZ
    dof rx
    limits (-10.0 170.0)
  end
  begin
     id 20
     name lwrist
     direction 1 -4.48978e-011 1.92422e-026   
     length 1.97382   
     axis -1.18182e-014 90 90   XYZ
    dof ry
    limits (-180.0 0.0)
 end
  begin
     id 21 
     name lhand
     direction 1 -4.48931e-011 3.84844e-026   
     length 0.560187   
     axis -2.45563e-014 90 90   XYZ
    dof rx rz
    limits (-90.0 90.0)
           (-45.0 45.0)
  end
  begin
     id 22 
     name lfingers
     direction 1 -4.48952e-011 7.69687e-026   
     length 0.451637   
     axis -4.91126e-014 90 90   XYZ
    dof rx
    limits (0.0 90.0)
  end
  begin
     id 23
     name lthumb
     direction 0.707107 -6.34901e-011 0.707107   
     length 0.648463   
     axis -90 45 2.85299e-015   XYZ
    dof rx rz
    limits (-45.0 45.0)
           (-45.0 45.0)
  end
  begin
     id 24 
     name rclavicle
     direction -0.965946 0.258716 0.00371831   
     length 3.63667  
     axis 0 0 0   XYZ 
    dof ry rz
    limits (-10.0 20.0)
           (-20.0 0.0)
  end
  begin
     id 25 
     name rhumerus
     direction -1 -4.48966e-011 -1.78361e-028  
     length 6.28647   
     axis 180 30 90   XYZ
    dof rx ry rz
    limits (-90.0 60.0)
           (-90.0 90.0)
           (-90.0 90.0)
  end
  begin
     id 26 
     name rradius
     direction -1 -4.48961e-011 1.05248e-026   
     length 3.81645   
     axis 180 30 90   XYZ
    dof rx
    limits (-10.0 170.0)
  end
  begin
     id 27 
     name rwrist
     direction -1 -4.48979e-011 1.92422e-026   
     length 1.90822   
     axis -1.18182e-014 -90 -90   XYZ
    dof ry
    limits (-180.0 0.0)
  end
  begin
     id 28
     name rhand
     direction -1 -4.48937e-011 3.84844e-026   
     length 0.646185   
     axis -2.45563e-014 -90 -90   XYZ
    dof rx rz
    limits (-90.0 90.0)
           (-45.0 45.0)
  end
  begin
     id 29
     name rfingers
     direction -1 -4.48953e-011 7.69687e-026   
     length 0.520971   
     axis -4.91126e-014 -90 -90   XYZ
    dof rx
    limits (0.0 90.0)
  end
  begin
     id 30
     name rthumb
     direction -0.707107 -6.3494e-011 0.707107   
     length 0.748013   
     axis -90 -45 -2.85299e-015   XYZ
    dof rx rz
    limits (-45.0 45.0)
           (-45.0 45.0)
  end
:hierarchy
  begin
    root lhipjoint rhipjoint lowerback
    lhipjoint lfemur
    lfemur ltibia
    ltibia lfoot
    lfoot ltoes
    rhipjoint rfemur
    rfemur rtibia
    rtibia rfoot
    rfoot rtoes
    lowerback upperback
    upperback thorax
    thorax lowerneck lclavicle rclavicle
    lowerneck upperneck
    upperneck head
    lclavicle lhumerus
    lhumerus lradius
    lradius lwrist
    lwrist lhand lthumb
    lhand lfingers
    rclavicle rhumerus
    rhumerus rradius
    rradius rwrist
    rwrist rhand rthumb
    rhand rfingers
  end

#!OML:ASF H:\HAZMAT1\Patient Classification 1\Patient 3\Session 1\dancer.ASF
:FULLY-SPECIFIED
:DEGREES
75
upperback -1.259450 1.348450 0.397073
rfoot -21.087700 -9.283180
lradius 17.875299
lthumb 20.022100 51.458000
rradius 33.744499
lwrist -18.816299
rhand -18.041201 -23.018801
rhumerus -32.007801 1.254280 -81.318604
lowerneck -6.522290 0.710454 2.124790
lhand -5.802580 22.469601
ltibia 71.384003
head 5.366570 0.444040 -0.080773
rwrist 15.116800
lfingers 7.125020
rtoes 5.933580
lowerback 2.123980 0.830102 7.321010
rfingers 7.125020
lclavicle 0.000000 0.000000
upperneck 14.239500 0.588235 0.741812
rfemur -27.862301 9.028190 29.978800
thorax -2.340400 0.557036 -3.747350
rclavicle 0.000000 0.000000
rtibia 43.947300
lfoot -0.199398 10.934200
lhumerus -59.536400 16.125299 49.584000
rthumb 8.230570 -52.838501
root 28.496201 18.113800 30.449699 -893.241028 188.843002 -909.205017
ltoes 4.552800
lfemur -48.943298 -21.516300 -9.862220
76
upperback 0.023620 -0.931897 1.692040
rfoot -23.787100 -10.273100
lradius 30.003300
lthumb 19.903400 43.998001
rradius 29.840799
lwrist -13.891900
rhand -19.706200 -21.419399
rhumerus -28.266600 4.610820 -83.589302
lowerneck -7.556220 1.503640 2.845620
lhand -5.926060 14.997200
ltibia 32.419701
head 5.616080 0.966637 -2.022310
rwrist 17.713400
lfingers 7.125020
rtoes 1.475160
lowerback 3.668120 -1.057340 10.325300
rfingers 7.125020
lclavicle -0.000000 -0.000000
upperneck 14.169600 2.472410 -5.505010
rfemur -27.859501 0.554294 27.740101
thorax -2.178730 -0.564164 -3.971180
rclavicle -0.000000 -0.000000
rtibia 46.782799
lfoot 5.971800 27.978001
lhumerus -47.022598 1.892990 81.248802
rthumb 6.623420 -51.295898
root 28.836599 18.021200 30.740200 -894.471985 182.026001 -907.612000
ltoes 33.809898
lfemur -70.801300 -31.361500 7.389130
77
upperback 0.729437 -5.348290 0.524720
rfoot -26.478399 -12.699100
lradius 28.825500
lthumb 17.478001 46.429501
rradius 25.443899
lwrist -14.598200
rhand -20.693001 -23.459400
rhumerus -46.987598 -4.751780 -70.014603
lowerneck -6.557620 5.553750 5.701920
lhand -8.447680 17.195200
ltibia 34.967300
head 5.533570 3.640970 -3.004940
rwrist 22.600700
lfingers 7.125020
rtoes -2.133870
lowerback 1.446180 -4.107510 9.056570
rfingers 7.125020
lclavicle 0.000000 0.000000
upperneck 12.910700 8.002430 -8.421190
rfemur -30.972200 0.669290 22.103701
thorax -0.827135 -2.679760 -4.355050
rclavicle 0.000000 0.000000
rtibia 51.929798
lfoot 11.683900 35.237999
lhumerus -30.062000 -4.510990 69.593803
rthumb 5.670790 -53.363499
root 29.617599 17.797600 30.945299 -893.164001 179.313004 -905.081970
ltoes 39.570599
lfemur -58.566898 -24.093201 24.639601
78
upperback 0.694780 -7.412720 0.753564
rfoot -28.138201 -17.109301
lradius 43.470901
lthumb 17.631001 47.013199
rradius 20.009001
lwrist -10.843800
rhand -17.441000 -26.364500
rhumerus -67.558899 -7.833800 -44.715302
lowerneck -8.946290 5.835190 6.317800
lhand -8.288790 17.792601
ltibia 47.666100
head 7.293680 3.786140 -3.026000
rwrist 25.068800
lfingers 7.125020
rtoes -9.006990
lowerback -1.768960 -5.373960 10.549100
rfingers 7.125020
lclavicle -0.000000 0.000000
upperneck 16.922100 8.528640 -8.538020
rfemur -25.302799 0.978639 13.066700
thorax 0.489668 -3.644430 -5.148930
rclavicle -0.000000 0.000000
rtibia 51.406399
lfoot -0.964511 8.915170
lhumerus -28.457800 -11.072300 66.804398
rthumb 8.809770 -56.160599
root 31.580999 17.600500 31.507099 -894.718994 174.100998 -903.177979
ltoes -6.369920
lfemur -30.216801 -8.154150 10.338200
79
upperback 0.213614 -7.739120 1.026190
rfoot -12.876600 -33.826500
lradius 63.717098
lthumb 21.574200 46.922798
rradius 21.930599
lwrist -7.433570
rhand -16.192900 -26.261801
rhumerus -67.046997 -6.669870 -52.141102
lowerneck -10.955300 2.101830 2.981550
lhand -4.187140 18.104500
ltibia 41.831299
head 8.459740 1.372140 -2.631890
rwrist 21.854799
lfingers 7.125020
rtoes -8.906940
lowerback -2.638540 -5.583470 9.699560
rfingers 7.125020
lclavicle -0.000000 0.000000
upperneck 20.736401 3.994110 -7.598450
rfemur -15.262100 14.626700 -3.220140
thorax 0.565100 -3.820740 -4.470610
rclavicle -0.000000 0.000000
rtibia 45.827000
lfoot -18.570299 3.644160
lhumerus -33.359600 -20.746401 72.706596
rthumb 10.014000 -56.003601
root 35.059898 17.951401 31.542700 -894.148987 163.865997 -896.789978
ltoes -6.292000
lfemur -24.421101 -12.445600 -8.802420
80
upperback 1.511530 -9.619300 0.413547
rfoot 26.485800 -15.783000
lradius 58.273300
lthumb 25.274000 45.482899
rradius 24.085600
lwrist -8.735180
rhand -16.838100 -23.093500
rhumerus -63.133202 -5.609470 -59.925598
lowerneck -7.373300 1.090640 2.004960
lhand -0.330257 17.137100
ltibia 41.823502
head 7.611240 0.760058 -1.619520
rwrist 20.283100
lfingers 7.125020
rtoes 22.030399
lowerback 0.236394 -7.200400 4.705500
rfingers 7.125020
lclavicle 0.000000 0.000000
upperneck 20.620600 2.112220 -4.468600
rfemur -52.574200 -5.419860 9.317390
thorax 0.732127 -4.762140 -2.144550
rclavicle 0.000000 0.000000
rtibia 92.483704
lfoot -17.469601 -2.311090
lhumerus -21.360399 -26.613800 60.036301
rthumb 9.391560 -52.864300
root 37.333698 18.177900 30.923500 -896.030029 159.850006 -895.820007
ltoes 3.658160
lfemur -22.614500 -8.143070 -18.889900
81
upperback 2.451830 -10.153300 0.516023
rfoot 10.442800 -26.985701
lradius 37.486000
lthumb 27.056999 43.493401
rradius 21.824200
lwrist -13.628700
rhand -18.341600 -25.029301
rhumerus -65.364799 -6.139020 -51.472198
lowerneck -7.438300 1.731230 2.949990
lhand 1.532040 15.411800
ltibia 33.283199
head 7.319180 1.148000 -1.168950
rwrist 21.734800
lfingers 7.125020
rtoes 33.021500
lowerback 3.184210 -7.747230 6.078850
rfingers 7.125020
lclavicle 0.000000 0.000000
upperneck 19.678400 2.456820 -2.711930
rfemur -76.798401 14.934200 -5.584550
thorax -0.175939 -5.016950 -2.390990
rclavicle 0.000000 0.000000
rtibia 34.721401
lfoot -13.515200 6.643410
lhumerus -8.089800 -25.899300 55.219898
rthumb 7.940630 -54.860199
root 38.415798 18.776199 30.351299 -895.434998 161.007004 -899.914978
ltoes 7.117870
lfemur -20.907801 -14.530500 -18.168100
82
upperback 2.521570 -8.170960 0.112840
rfoot 29.588400 -11.234800
lradius 24.031799
lthumb 28.790501 43.773602
rradius 21.291901
lwrist -20.773100
rhand -18.026899 -26.004700
rhumerus -58.599899 -2.033800 -45.847698
lowerneck -7.779520 1.675670 2.889160
lhand 3.345290 15.974000
ltibia 41.712299
head 7.750380 1.118640 -1.231050
rwrist 21.756300
lfingers 7.125020
rtoes 30.611000
lowerback 3.759620 -6.307840 6.994230
rfingers 7.125020
lclavicle -0.000000 -0.000000
upperneck 20.799601 2.454620 -2.930410
rfemur -74.569000 1.123480 21.611900
thorax -0.432373 -4.024240 -3.355030
rclavicle -0.000000 -0.000000
rtibia 83.486900
lfoot -15.175600 8.051940
lhumerus -13.071800 -15.739400 51.769501
rthumb 8.244370 -55.823799
root 38.840801 18.370399 29.427999 -894.189026 163.932999 -900.325012
ltoes 7.729730
lfemur -29.265600 -13.622000 -18.867300
83
upperback 1.280570 -2.379180 -0.918055
rfoot 7.187410 -13.718500
lradius 16.779800
lthumb 27.201200 44.916698
rradius 21.938700
lwrist -31.174500
rhand -17.085100 -26.298100
rhumerus -45.820999 3.721580 -46.135399
lowerneck -8.724050 0.161229 2.424400
lhand 1.682770 16.857599
ltibia 49.603600
head 8.406030 0.124528 -0.748818
rwrist 20.020599
lfingers 7.125020
rtoes 15.286100
lowerback 2.692710 -1.909020 6.933240
rfingers 7.125020
lclavicle 0.000000 -0.000000
upperneck 22.464600 0.039986 -1.025470
rfemur -25.579599 -1.754000 16.729500
thorax -0.507382 -1.171380 -4.759930
rclavicle 0.000000 -0.000000
rtibia 81.946701
lfoot -16.380100 11.695100
lhumerus -36.374199 -5.310600 44.671200
rthumb 9.153270 -56.079399
root 38.751499 17.895901 28.448700 -891.382996 171.194000 -901.460022
ltoes 8.862720
lfemur -39.650200 -12.536900 -15.644600
